<?xml version="1.0" encoding="utf-8"?>
<!-- Generator: Adobe Illustrator 19.0.1, SVG Export Plug-In . SVG Version: 6.00 Build 0)  -->
<svg version="1.1" id="Layer_1" xmlns="http://www.w3.org/2000/svg" xmlns:xlink="http://www.w3.org/1999/xlink" x="0px" y="0px"
	 viewBox="0 0 1190.6 841.9" style="enable-background:new 0 0 1190.6 841.9;" xml:space="preserve">
<style type="text/css">
	.st0{fill:#33669A;}
	.st1{fill:#AC9D9C;}
</style>
<g>
	<polyline class="st0" points="111.4,312.9 28,529.6 53.5,529.6 111.4,379.1 111.4,312.9 	"/>
	<polyline class="st1" points="125.7,312.9 209.1,529.6 183.6,529.6 125.7,379.1 125.7,312.9 	"/>
	<path class="st1" d="M319.6,527.9c1.4,0.9,4.2,1.7,6.7,1.7c6.2,0,9.2-3.6,9.2-7.6c0-3.9-2.2-6-6.7-7.7c-3.6-1.4-5.2-2.6-5.2-5
		c0-1.8,1.4-3.9,5-3.9c2.4,0,4.1,0.7,5,1.2l0.9-2.8c-1.1-0.6-3.1-1.2-5.8-1.2c-5.1,0-8.5,3-8.5,7.1c0,3.7,2.7,5.9,6.9,7.4
		c3.6,1.3,5,2.8,5,5.2c0,2.7-2,4.5-5.5,4.5c-2.3,0-4.5-0.7-6.1-1.7L319.6,527.9L319.6,527.9z M383.4,514.1h-10.2v-8.3H384v-2.8
		h-14.3v26.3h14.8v-2.9h-11.4v-9.5h10.2V514.1L383.4,514.1z M418.7,529.2h3.4v-11.4h3.2c3.1,0.1,4.5,1.5,5.3,5.1
		c0.7,3.3,1.3,5.5,1.7,6.3h3.5c-0.5-1-1.1-3.6-2-7.2c-0.7-2.7-1.9-4.6-3.9-5.3v-0.1c2.7-0.9,5-3.2,5-6.7c0-2.1-0.8-3.9-2.1-5
		c-1.6-1.5-4-2.2-7.7-2.2c-2.3,0-4.8,0.2-6.5,0.6V529.2L418.7,529.2z M422.1,505.7c0.6-0.2,1.7-0.3,3.4-0.3c3.6,0,6.1,1.5,6.1,4.9
		c0,3-2.3,5-5.9,5h-3.5V505.7L422.1,505.7z M479.5,529.2l9.4-26.3h-3.6l-4.5,13c-1.2,3.4-2.3,6.8-3,9.8h-0.1c-0.7-3-1.7-6.3-2.8-9.8
		l-4.1-13h-3.7l8.6,26.3H479.5L479.5,529.2z M521.4,502.9v26.3h3.4v-26.3H521.4L521.4,502.9z M578.2,525.6c-1.4,0.7-3.5,1.1-5.6,1.1
		c-6.4,0-10.1-4.1-10.1-10.5c0-6.9,4.1-10.8,10.3-10.8c2.2,0,4,0.5,5.3,1.1l0.9-2.8c-0.9-0.4-3-1.1-6.2-1.1
		c-8.2,0-13.7,5.5-13.7,13.8c0,8.6,5.5,13.3,13,13.3c3.2,0,5.7-0.6,7-1.2L578.2,525.6L578.2,525.6z M626.4,514.1h-10.2v-8.3H627
		v-2.8h-14.3v26.3h14.8v-2.9h-11.4v-9.5h10.2V514.1L626.4,514.1z M713.2,514.1H703v-8.3h10.8v-2.8h-14.3v26.3h14.8v-2.9H703v-9.5
		h10.2V514.1L713.2,514.1z M751.7,529.2V518c0-4.4,0-7.5-0.2-10.9l0.1,0c1.3,2.8,3,5.9,4.9,8.8l8.4,13.4h3.4v-26.3h-3.2v11.1
		c0,4.1,0.1,7.3,0.4,10.8l-0.1,0c-1.2-2.7-2.8-5.5-4.7-8.6l-8.4-13.3h-3.7v26.3H751.7L751.7,529.2z M803.9,502.9v26.3h3.4v-12.3H820
		v12.3h3.4v-26.3H820v11h-12.7v-11H803.9L803.9,502.9z M872.6,520.9l2.8,8.3h3.6l-9-26.3H866l-8.9,26.3h3.5l2.7-8.3H872.6
		L872.6,520.9z M864,518.3l2.6-7.6c0.5-1.6,0.9-3.2,1.3-4.8h0.1c0.4,1.5,0.8,3.1,1.3,4.8l2.6,7.6H864L864,518.3z M915.8,529.2V518
		c0-4.4,0-7.5-0.2-10.9l0.1,0c1.3,2.8,3,5.9,4.9,8.8l8.4,13.4h3.4v-26.3h-3.2v11.1c0,4.1,0.1,7.3,0.4,10.8l-0.1,0
		c-1.2-2.7-2.8-5.5-4.7-8.6l-8.4-13.3h-3.7v26.3H915.8L915.8,529.2z M985.7,525.6c-1.4,0.7-3.5,1.1-5.6,1.1
		c-6.4,0-10.1-4.1-10.1-10.5c0-6.9,4.1-10.8,10.3-10.8c2.2,0,4,0.5,5.3,1.1l0.9-2.8c-0.9-0.4-3-1.1-6.2-1.1
		c-8.2,0-13.7,5.5-13.7,13.8c0,8.6,5.5,13.3,13,13.3c3.2,0,5.7-0.6,7-1.2L985.7,525.6L985.7,525.6z M1033.9,514.1h-10.2v-8.3h10.8
		v-2.8h-14.3v26.3h14.8v-2.9h-11.4v-9.5h10.2V514.1L1033.9,514.1z M1069.2,529.1c1.8,0.2,3.8,0.3,6.2,0.3c5.1,0,9.2-1.3,11.7-3.8
		c2.4-2.4,3.8-5.9,3.8-10.2c0-4.3-1.4-7.3-3.8-9.4c-2.3-2.1-5.8-3.3-10.7-3.3c-2.7,0-5.1,0.2-7.3,0.5V529.1L1069.2,529.1z
		 M1072.6,505.7c0.9-0.2,2.2-0.4,4-0.4c7.2,0,10.7,3.9,10.7,10.2c0,7.1-3.9,11.2-11.2,11.2c-1.3,0-2.6,0-3.4-0.2V505.7"/>
	<path class="st0" d="M1156.5,364.6c0-10.1,0.6-15,0.6-15.7c0-0.7-0.3-1-1.5-1c-1.2,0-2.4-0.1-5.2-0.7c-3.7-0.9-8-1.5-13.8-1.5
		c-18.9,0-30.8,10.8-30.8,26.7c0,10.1,3.6,19.3,19.3,32.2l6.7,5.5c12.8,10.5,17.1,16.5,17.1,26.7c0,9.5-7,19.8-21.2,19.8
		c-10,0-19.8-4.2-22-15.2c-0.5-2.1-0.5-4.2-0.5-5.5c0-1.2-0.1-1.6-1-1.6c-0.7,0-1,0.7-1.2,2.4c-0.2,2.4-0.7,8.3-0.7,15.8
		c0,4,0.2,4.6,2.2,5.6c6.1,3,12.9,4,19.9,4c8,0,16.1-1.8,22.4-6.2c10.3-7.3,12.6-18.6,12.6-24.7c0-11.9-4.2-21.1-21.7-34.9l-4.2-3.3
		c-14-11.4-18.1-16.5-18.1-25c0-10.8,8-17.2,18.3-17.2c13.7,0,17.7,6.2,18.6,7.9c0.9,1.6,1.8,5.6,1.9,7.4c0.2,1.2,0.3,1.9,1.2,1.9
		C1156.2,368,1156.5,367,1156.5,364.6"/>
	<path class="st0" d="M1043.4,460c1.6,0,2.4-0.4,2.4-1.2c0-0.4-0.3-0.9-1.2-0.9c-1.3,0-4.6-0.3-6.7-0.6c-4.5-0.6-5.3-3.9-5.8-8.2
		c-0.7-6.2-0.7-18-0.7-32.2v-26.2c0-23.2,0-27.3,0.3-32.1c0.3-5.2,1.5-7.7,5.5-8.5c1.8-0.3,2.7-0.4,3.7-0.4c0.6,0,1.2-0.3,1.2-0.9
		c0-0.9-0.7-1.2-2.4-1.2c-4.5,0-13.8,0.4-14.6,0.4c-0.8,0-10.1-0.4-15-0.4c-1.6,0-2.4,0.3-2.4,1.2c0,0.6,0.6,0.9,1.2,0.9
		c1,0,3,0.1,4.6,0.6c3.3,0.7,4.8,3.3,5.1,8.3c0.3,4.8,0.3,8.9,0.3,32.1v26.2c0,14.3,0,26-0.8,32.2c-0.6,4.3-1.3,7.6-4.3,8.2
		c-1.3,0.3-3.1,0.6-4.4,0.6c-0.9,0-1.2,0.4-1.2,0.9c0,0.9,0.7,1.2,2.4,1.2c4.5,0,13.8-0.4,14.6-0.4
		C1025.9,459.5,1035.3,460,1043.4,460"/>
	<path class="st0" d="M949.7,349.7c1,0,1.6-0.4,1.6-1c0-0.9-1-1-2.7-1c-6.1,0-11,0.4-12.6,0.4c-1.6,0-8.8-0.4-15.5-0.4
		c-1.8,0-3,0.1-3,1c0,0.6,0.1,1,1.2,1c1.2,0,4.6,0.1,7.3,0.7c4.6,1.2,5.6,4.5,5.8,14.1l1.6,75.5c-4.8-4.9-21-23-35.7-38.8
		c-22.9-24.5-45-48.4-47.2-51c-1.5-1.5-4-4.8-5.2-4.8c-1.2,0-1.6,1.6-1.6,7.4l-0.1,85.1c0,13.5-0.7,17.8-4.5,18.9
		c-2.2,0.7-4.9,0.9-6.1,0.9c-0.7,0-1.2,0.3-1.2,0.9c0,1,0.9,1.2,2.4,1.2c6.7,0,12.9-0.4,14.3-0.4c1.3,0,7.3,0.4,15.8,0.4
		c1.8,0,2.7-0.3,2.7-1.2c0-0.6-0.4-0.9-1.2-0.9c-1.3,0-4.6-0.1-7.4-0.9c-4-1.2-5.5-5.1-5.8-17.2l-1.9-71.2
		c4.8,5.3,21.5,24.1,38.8,42.6c15.8,16.9,37.1,38.8,38.8,40.3c7.9,7.9,9.7,9.5,10.8,9.5c1,0,1.3-0.7,1.3-10.5l0.3-87.1
		c0-8.9,0.6-12.2,5.5-13.2C947.9,349.7,948.9,349.7,949.7,349.7"/>
	<path class="st0" d="M779.3,349.7c1,0,1.6-0.4,1.6-1c0-0.9-1-1-2.7-1c-6.1,0-11,0.4-12.6,0.4c-1.6,0-8.8-0.4-15.5-0.4
		c-1.8,0-3,0.1-3,1c0,0.6,0.1,1,1.2,1c1.2,0,4.6,0.1,7.3,0.7c4.6,1.2,5.6,4.5,5.8,14.1l1.6,75.5c-4.8-4.9-21-23-35.7-38.8
		c-22.9-24.5-45-48.4-47.2-51c-1.5-1.5-4-4.8-5.2-4.8c-1.2,0-1.6,1.6-1.6,7.4l-0.1,85.1c0,13.5-0.7,17.8-4.5,18.9
		c-2.2,0.7-4.9,0.9-6.1,0.9c-0.7,0-1.2,0.3-1.2,0.9c0,1,0.9,1.2,2.4,1.2c6.7,0,12.9-0.4,14.3-0.4c1.3,0,7.3,0.4,15.7,0.4
		c1.8,0,2.7-0.3,2.7-1.2c0-0.6-0.4-0.9-1.2-0.9c-1.3,0-4.6-0.1-7.4-0.9c-4-1.2-5.5-5.1-5.8-17.2l-1.9-71.2
		c4.8,5.3,21.5,24.1,38.8,42.6c15.8,16.9,37.1,38.8,38.8,40.3c7.9,7.9,9.7,9.5,10.8,9.5c1,0,1.3-0.7,1.3-10.5l0.3-87.1
		c0-8.9,0.6-12.2,5.5-13.2C777.5,349.7,778.5,349.7,779.3,349.7"/>
	<path class="st0" d="M498,349.7c1.2,0,1.8-0.3,1.8-1c0-0.7-0.9-1-2.5-1c-4.3,0-10.7,0.4-11.6,0.4c-1.8,0-8.6-0.4-14.6-0.4
		c-2.4,0-3.3,0.3-3.3,1.2c0,0.7,0.7,0.9,1.6,0.9c1.6,0,3.9,0,5.6,0.6c1.5,0.7,1.9,2.2,1.9,3.4c0,1.3-0.6,3.4-1.3,5.6
		c-3.3,10.7-23.2,62.6-31.8,82.5l-28.5-76.1c-2.2-5.8-4-10.4-4-12.3c0-1,0.3-2.2,1.9-3c1.3-0.6,4-0.7,5.6-0.7c1,0,1.5-0.3,1.5-1
		c0-0.7-1.3-1-4-1c-5.6,0-12.3,0.4-13.8,0.4c-1.8,0-10.3-0.4-17.4-0.4c-2.4,0-3.9,0.1-3.9,1c0,0.6,0.3,1,1.2,1c0.9,0,3.4,0,5.6,0.6
		c5.2,1.5,7.4,3.1,10.7,11.4l36.4,91.1c2.8,7.1,3.6,9.2,5.3,9.2c1.5,0,2.1-2.4,6.2-11.3c3.4-7.3,10.1-23.3,19.2-45
		c7.6-18.3,15-36.1,16.6-40.3c4-10.1,6.2-12.6,8.2-14C493.7,349.7,497,349.7,498,349.7"/>
	<path class="st0" d="M269,443.7c-2.7,7.4-5.6,13.1-12.5,14c-1.2,0.2-3.3,0.3-4.3,0.3c-0.7,0-1.3,0.3-1.3,0.9c0,0.9,0.9,1.2,2.8,1.2
		c7,0,15.2-0.4,16.8-0.4c1.6,0,8,0.4,11.6,0.4c1.3,0,2.2-0.3,2.2-1.2c0-0.6-0.4-0.9-1.5-0.9h-1.5c-2.5,0-5.6-1.3-5.6-4.3
		c0-2.7,0.7-6.2,2.1-10l8.9-26.3c0.3-0.7,0.7-1.2,1.5-1.2h31.9c0.7,0,1,0.3,1.3,0.9l13.8,36.6c0.9,2.4,0,3.7-0.9,4
		c-0.6,0.2-1,0.4-1,1c0,0.9,1.6,0.9,4.5,1c10.3,0.3,21.1,0.3,23.3,0.3c1.6,0,3-0.3,3-1.2c0-0.7-0.6-0.9-1.5-0.9
		c-1.5,0-3.7-0.1-5.9-0.9c-3.1-0.9-7.4-3.3-12.8-16.5c-9.1-22.6-32.4-83.9-34.6-89.6c-1.8-4.6-2.4-5.3-3.3-5.3
		c-0.9,0-1.5,0.9-3.3,5.8L269,443.7L269,443.7z M289.8,410.8c-0.4,0-0.7-0.3-0.4-1l13.1-40.1c0.7-2.2,1.5-2.2,2.2,0l14.1,40.1
		c0.1,0.6,0.1,1-0.6,1H289.8"/>
	<path class="st0" d="M532,443.7c-2.7,7.4-5.6,13.1-12.5,14c-1.2,0.2-3.3,0.3-4.3,0.3c-0.7,0-1.3,0.3-1.3,0.9c0,0.9,0.9,1.2,2.8,1.2
		c7,0,15.2-0.4,16.8-0.4c1.6,0,8,0.4,11.6,0.4c1.3,0,2.2-0.3,2.2-1.2c0-0.6-0.4-0.9-1.5-0.9h-1.5c-2.5,0-5.6-1.3-5.6-4.3
		c0-2.7,0.7-6.2,2.1-10l8.9-26.3c0.3-0.7,0.7-1.2,1.5-1.2h31.9c0.7,0,1,0.3,1.3,0.9l13.8,36.6c0.9,2.4,0,3.7-0.9,4
		c-0.6,0.2-1,0.4-1,1c0,0.9,1.6,0.9,4.5,1c10.3,0.3,21.1,0.3,23.3,0.3c1.6,0,3-0.3,3-1.2c0-0.7-0.6-0.9-1.5-0.9
		c-1.5,0-3.7-0.1-5.9-0.9c-3.1-0.9-7.4-3.3-12.8-16.5c-9.1-22.6-32.4-83.9-34.6-89.6c-1.8-4.6-2.4-5.3-3.3-5.3
		c-0.9,0-1.5,0.9-3.3,5.8L532,443.7L532,443.7z M552.8,410.8c-0.4,0-0.7-0.3-0.4-1l13.1-40.1c0.7-2.2,1.5-2.2,2.2,0l14.1,40.1
		c0.1,0.6,0.1,1-0.6,1H552.8"/>
	<polyline class="st1" points="253.3,481.6 253.3,483.5 1161.9,483.5 1161.9,481.6 253.3,481.6 	"/>
</g>
</svg>
