<?xml version="1.0" encoding="utf-8"?>
<!-- Generator: Adobe Illustrator 19.0.1, SVG Export Plug-In . SVG Version: 6.00 Build 0)  -->
<svg version="1.1" id="Layer_1" xmlns="http://www.w3.org/2000/svg" xmlns:xlink="http://www.w3.org/1999/xlink" x="0px" y="0px"
	 viewBox="317 288 1133.9 216.8" style="enable-background:new 317 288 1133.9 216.8;" xml:space="preserve">
<style type="text/css">
	.st0{fill:#FFFFFF;}
</style>
<g>
	<polyline class="st0" points="400.4,288 317,504.7 342.5,504.7 400.4,354.2 400.4,288 	"/>
	<polyline class="st0" points="414.7,288 498.1,504.7 472.6,504.7 414.7,354.2 414.7,288 	"/>
	<path class="st0" d="M608.6,503c1.4,0.9,4.2,1.7,6.7,1.7c6.2,0,9.2-3.6,9.2-7.6c0-3.9-2.2-6-6.7-7.7c-3.6-1.4-5.2-2.6-5.2-5
		c0-1.8,1.4-3.9,5-3.9c2.4,0,4.1,0.7,5,1.2l0.9-2.8c-1.1-0.6-3.1-1.2-5.8-1.2c-5.1,0-8.5,3-8.5,7.1c0,3.7,2.7,5.9,6.9,7.4
		c3.6,1.3,5,2.8,5,5.2c0,2.7-2,4.5-5.5,4.5c-2.3,0-4.5-0.7-6.1-1.7L608.6,503L608.6,503z M672.4,489.2h-10.2v-8.3H673v-2.8h-14.3
		v26.3h14.8v-2.9h-11.4V492h10.2L672.4,489.2L672.4,489.2z M707.7,504.3h3.4v-11.4h3.2c3.1,0.1,4.5,1.5,5.3,5.1
		c0.7,3.3,1.3,5.5,1.7,6.3h3.5c-0.5-1-1.1-3.6-2-7.2c-0.7-2.7-1.9-4.6-3.9-5.3v-0.1c2.7-0.9,5-3.2,5-6.7c0-2.1-0.8-3.9-2.1-5
		c-1.6-1.5-4-2.2-7.7-2.2c-2.3,0-4.8,0.2-6.5,0.6v25.9H707.7z M711.1,480.8c0.6-0.2,1.7-0.3,3.4-0.3c3.6,0,6.1,1.5,6.1,4.9
		c0,3-2.3,5-5.9,5h-3.5v-9.6H711.1z M768.5,504.3l9.4-26.3h-3.6l-4.5,13c-1.2,3.4-2.3,6.8-3,9.8h-0.1c-0.7-3-1.7-6.3-2.8-9.8
		l-4.1-13h-3.7l8.6,26.3H768.5L768.5,504.3z M810.4,478v26.3h3.4V478L810.4,478L810.4,478z M867.2,500.7c-1.4,0.7-3.5,1.1-5.6,1.1
		c-6.4,0-10.1-4.1-10.1-10.5c0-6.9,4.1-10.8,10.3-10.8c2.2,0,4,0.5,5.3,1.1l0.9-2.8c-0.9-0.4-3-1.1-6.2-1.1
		c-8.2,0-13.7,5.5-13.7,13.8c0,8.6,5.5,13.3,13,13.3c3.2,0,5.7-0.6,7-1.2L867.2,500.7L867.2,500.7z M915.4,489.2h-10.2v-8.3H916
		v-2.8h-14.3v26.3h14.8v-2.9h-11.4V492h10.2v-2.8H915.4z M1002.2,489.2H992v-8.3h10.8v-2.8h-14.3v26.3h14.8v-2.9H992V492h10.2V489.2
		L1002.2,489.2z M1040.7,504.3v-11.2c0-4.4,0-7.5-0.2-10.9h0.1c1.3,2.8,3,5.9,4.9,8.8l8.4,13.4h3.4v-26.3h-3.2v11.1
		c0,4.1,0.1,7.3,0.4,10.8h-0.1c-1.2-2.7-2.8-5.5-4.7-8.6l-8.4-13.3h-3.7v26.3h3.1V504.3z M1092.9,478v26.3h3.4V492h12.7v12.3h3.4
		V478h-3.4v11h-12.7v-11L1092.9,478L1092.9,478z M1161.6,496l2.8,8.3h3.6l-9-26.3h-4l-8.9,26.3h3.5l2.7-8.3H1161.6L1161.6,496z
		 M1153,493.4l2.6-7.6c0.5-1.6,0.9-3.2,1.3-4.8h0.1c0.4,1.5,0.8,3.1,1.3,4.8l2.6,7.6H1153L1153,493.4z M1204.8,504.3v-11.2
		c0-4.4,0-7.5-0.2-10.9h0.1c1.3,2.8,3,5.9,4.9,8.8l8.4,13.4h3.4v-26.3h-3.2v11.1c0,4.1,0.1,7.3,0.4,10.8h-0.1
		c-1.2-2.7-2.8-5.5-4.7-8.6l-8.4-13.3h-3.7v26.3h3.1V504.3z M1274.7,500.7c-1.4,0.7-3.5,1.1-5.6,1.1c-6.4,0-10.1-4.1-10.1-10.5
		c0-6.9,4.1-10.8,10.3-10.8c2.2,0,4,0.5,5.3,1.1l0.9-2.8c-0.9-0.4-3-1.1-6.2-1.1c-8.2,0-13.7,5.5-13.7,13.8c0,8.6,5.5,13.3,13,13.3
		c3.2,0,5.7-0.6,7-1.2L1274.7,500.7L1274.7,500.7z M1322.9,489.2h-10.2v-8.3h10.8v-2.8h-14.3v26.3h14.8v-2.9h-11.4V492h10.2v-2.8
		H1322.9z M1358.2,504.2c1.8,0.2,3.8,0.3,6.2,0.3c5.1,0,9.2-1.3,11.7-3.8c2.4-2.4,3.8-5.9,3.8-10.2s-1.4-7.3-3.8-9.4
		c-2.3-2.1-5.8-3.3-10.7-3.3c-2.7,0-5.1,0.2-7.3,0.5v25.9H1358.2z M1361.6,480.8c0.9-0.2,2.2-0.4,4-0.4c7.2,0,10.7,3.9,10.7,10.2
		c0,7.1-3.9,11.2-11.2,11.2c-1.3,0-2.6,0-3.4-0.2L1361.6,480.8"/>
	<path class="st0" d="M1445.5,339.7c0-10.1,0.6-15,0.6-15.7s-0.3-1-1.5-1s-2.4-0.1-5.2-0.7c-3.7-0.9-8-1.5-13.8-1.5
		c-18.9,0-30.8,10.8-30.8,26.7c0,10.1,3.6,19.3,19.3,32.2l6.7,5.5c12.8,10.5,17.1,16.5,17.1,26.7c0,9.5-7,19.8-21.2,19.8
		c-10,0-19.8-4.2-22-15.2c-0.5-2.1-0.5-4.2-0.5-5.5c0-1.2-0.1-1.6-1-1.6c-0.7,0-1,0.7-1.2,2.4c-0.2,2.4-0.7,8.3-0.7,15.8
		c0,4,0.2,4.6,2.2,5.6c6.1,3,12.9,4,19.9,4c8,0,16.1-1.8,22.4-6.2c10.3-7.3,12.6-18.6,12.6-24.7c0-11.9-4.2-21.1-21.7-34.9l-4.2-3.3
		c-14-11.4-18.1-16.5-18.1-25c0-10.8,8-17.2,18.3-17.2c13.7,0,17.7,6.2,18.6,7.9c0.9,1.6,1.8,5.6,1.9,7.4c0.2,1.2,0.3,1.9,1.2,1.9
		C1445.2,343.1,1445.5,342.1,1445.5,339.7"/>
	<path class="st0" d="M1332.4,435.1c1.6,0,2.4-0.4,2.4-1.2c0-0.4-0.3-0.9-1.2-0.9c-1.3,0-4.6-0.3-6.7-0.6c-4.5-0.6-5.3-3.9-5.8-8.2
		c-0.7-6.2-0.7-18-0.7-32.2v-26.2c0-23.2,0-27.3,0.3-32.1c0.3-5.2,1.5-7.7,5.5-8.5c1.8-0.3,2.7-0.4,3.7-0.4c0.6,0,1.2-0.3,1.2-0.9
		c0-0.9-0.7-1.2-2.4-1.2c-4.5,0-13.8,0.4-14.6,0.4c-0.8,0-10.1-0.4-15-0.4c-1.6,0-2.4,0.3-2.4,1.2c0,0.6,0.6,0.9,1.2,0.9
		c1,0,3,0.1,4.6,0.6c3.3,0.7,4.8,3.3,5.1,8.3c0.3,4.8,0.3,8.9,0.3,32.1V392c0,14.3,0,26-0.8,32.2c-0.6,4.3-1.3,7.6-4.3,8.2
		c-1.3,0.3-3.1,0.6-4.4,0.6c-0.9,0-1.2,0.4-1.2,0.9c0,0.9,0.7,1.2,2.4,1.2c4.5,0,13.8-0.4,14.6-0.4
		C1314.9,434.6,1324.3,435.1,1332.4,435.1"/>
	<path class="st0" d="M1238.7,324.8c1,0,1.6-0.4,1.6-1c0-0.9-1-1-2.7-1c-6.1,0-11,0.4-12.6,0.4s-8.8-0.4-15.5-0.4c-1.8,0-3,0.1-3,1
		c0,0.6,0.1,1,1.2,1c1.2,0,4.6,0.1,7.3,0.7c4.6,1.2,5.6,4.5,5.8,14.1l1.6,75.5c-4.8-4.9-21-23-35.7-38.8c-22.9-24.5-45-48.4-47.2-51
		c-1.5-1.5-4-4.8-5.2-4.8s-1.6,1.6-1.6,7.4l-0.1,85.1c0,13.5-0.7,17.8-4.5,18.9c-2.2,0.7-4.9,0.9-6.1,0.9c-0.7,0-1.2,0.3-1.2,0.9
		c0,1,0.9,1.2,2.4,1.2c6.7,0,12.9-0.4,14.3-0.4c1.3,0,7.3,0.4,15.8,0.4c1.8,0,2.7-0.3,2.7-1.2c0-0.6-0.4-0.9-1.2-0.9
		c-1.3,0-4.6-0.1-7.4-0.9c-4-1.2-5.5-5.1-5.8-17.2l-1.9-71.2c4.8,5.3,21.5,24.1,38.8,42.6c15.8,16.9,37.1,38.8,38.8,40.3
		c7.9,7.9,9.7,9.5,10.8,9.5c1,0,1.3-0.7,1.3-10.5l0.3-87.1c0-8.9,0.6-12.2,5.5-13.2C1236.9,324.8,1237.9,324.8,1238.7,324.8"/>
	<path class="st0" d="M1068.3,324.8c1,0,1.6-0.4,1.6-1c0-0.9-1-1-2.7-1c-6.1,0-11,0.4-12.6,0.4s-8.8-0.4-15.5-0.4c-1.8,0-3,0.1-3,1
		c0,0.6,0.1,1,1.2,1c1.2,0,4.6,0.1,7.3,0.7c4.6,1.2,5.6,4.5,5.8,14.1l1.6,75.5c-4.8-4.9-21-23-35.7-38.8c-22.9-24.5-45-48.4-47.2-51
		c-1.5-1.5-4-4.8-5.2-4.8s-1.6,1.6-1.6,7.4l-0.1,85.1c0,13.5-0.7,17.8-4.5,18.9c-2.2,0.7-4.9,0.9-6.1,0.9c-0.7,0-1.2,0.3-1.2,0.9
		c0,1,0.9,1.2,2.4,1.2c6.7,0,12.9-0.4,14.3-0.4c1.3,0,7.3,0.4,15.7,0.4c1.8,0,2.7-0.3,2.7-1.2c0-0.6-0.4-0.9-1.2-0.9
		c-1.3,0-4.6-0.1-7.4-0.9c-4-1.2-5.5-5.1-5.8-17.2l-1.9-71.2c4.8,5.3,21.5,24.1,38.8,42.6c15.8,16.9,37.1,38.8,38.8,40.3
		c7.9,7.9,9.7,9.5,10.8,9.5c1,0,1.3-0.7,1.3-10.5l0.3-87.1c0-8.9,0.6-12.2,5.5-13.2C1066.5,324.8,1067.5,324.8,1068.3,324.8"/>
	<path class="st0" d="M787,324.8c1.2,0,1.8-0.3,1.8-1s-0.9-1-2.5-1c-4.3,0-10.7,0.4-11.6,0.4c-1.8,0-8.6-0.4-14.6-0.4
		c-2.4,0-3.3,0.3-3.3,1.2c0,0.7,0.7,0.9,1.6,0.9c1.6,0,3.9,0,5.6,0.6c1.5,0.7,1.9,2.2,1.9,3.4c0,1.3-0.6,3.4-1.3,5.6
		c-3.3,10.7-23.2,62.6-31.8,82.5l-28.5-76.1c-2.2-5.8-4-10.4-4-12.3c0-1,0.3-2.2,1.9-3c1.3-0.6,4-0.7,5.6-0.7c1,0,1.5-0.3,1.5-1
		s-1.3-1-4-1c-5.6,0-12.3,0.4-13.8,0.4c-1.8,0-10.3-0.4-17.4-0.4c-2.4,0-3.9,0.1-3.9,1c0,0.6,0.3,1,1.2,1s3.4,0,5.6,0.6
		c5.2,1.5,7.4,3.1,10.7,11.4l36.4,91.1c2.8,7.1,3.6,9.2,5.3,9.2c1.5,0,2.1-2.4,6.2-11.3c3.4-7.3,10.1-23.3,19.2-45
		c7.6-18.3,15-36.1,16.6-40.3c4-10.1,6.2-12.6,8.2-14C782.7,324.8,786,324.8,787,324.8"/>
	<path class="st0" d="M558,418.8c-2.7,7.4-5.6,13.1-12.5,14c-1.2,0.2-3.3,0.3-4.3,0.3c-0.7,0-1.3,0.3-1.3,0.9c0,0.9,0.9,1.2,2.8,1.2
		c7,0,15.2-0.4,16.8-0.4s8,0.4,11.6,0.4c1.3,0,2.2-0.3,2.2-1.2c0-0.6-0.4-0.9-1.5-0.9h-1.5c-2.5,0-5.6-1.3-5.6-4.3
		c0-2.7,0.7-6.2,2.1-10l8.9-26.3c0.3-0.7,0.7-1.2,1.5-1.2h31.9c0.7,0,1,0.3,1.3,0.9l13.8,36.6c0.9,2.4,0,3.7-0.9,4
		c-0.6,0.2-1,0.4-1,1c0,0.9,1.6,0.9,4.5,1c10.3,0.3,21.1,0.3,23.3,0.3c1.6,0,3-0.3,3-1.2c0-0.7-0.6-0.9-1.5-0.9
		c-1.5,0-3.7-0.1-5.9-0.9c-3.1-0.9-7.4-3.3-12.8-16.5c-9.1-22.6-32.4-83.9-34.6-89.6c-1.8-4.6-2.4-5.3-3.3-5.3s-1.5,0.9-3.3,5.8
		L558,418.8L558,418.8z M578.8,385.9c-0.4,0-0.7-0.3-0.4-1l13.1-40.1c0.7-2.2,1.5-2.2,2.2,0l14.1,40.1c0.1,0.6,0.1,1-0.6,1H578.8"/>
	<path class="st0" d="M821,418.8c-2.7,7.4-5.6,13.1-12.5,14c-1.2,0.2-3.3,0.3-4.3,0.3c-0.7,0-1.3,0.3-1.3,0.9c0,0.9,0.9,1.2,2.8,1.2
		c7,0,15.2-0.4,16.8-0.4s8,0.4,11.6,0.4c1.3,0,2.2-0.3,2.2-1.2c0-0.6-0.4-0.9-1.5-0.9h-1.5c-2.5,0-5.6-1.3-5.6-4.3
		c0-2.7,0.7-6.2,2.1-10l8.9-26.3c0.3-0.7,0.7-1.2,1.5-1.2h31.9c0.7,0,1,0.3,1.3,0.9l13.8,36.6c0.9,2.4,0,3.7-0.9,4
		c-0.6,0.2-1,0.4-1,1c0,0.9,1.6,0.9,4.5,1c10.3,0.3,21.1,0.3,23.3,0.3c1.6,0,3-0.3,3-1.2c0-0.7-0.6-0.9-1.5-0.9
		c-1.5,0-3.7-0.1-5.9-0.9c-3.1-0.9-7.4-3.3-12.8-16.5c-9.1-22.6-32.4-83.9-34.6-89.6c-1.8-4.6-2.4-5.3-3.3-5.3
		c-0.9,0-1.5,0.9-3.3,5.8L821,418.8L821,418.8z M841.8,385.9c-0.4,0-0.7-0.3-0.4-1l13.1-40.1c0.7-2.2,1.5-2.2,2.2,0l14.1,40.1
		c0.1,0.6,0.1,1-0.6,1H841.8"/>
	<polyline class="st0" points="542.3,456.7 542.3,458.6 1450.9,458.6 1450.9,456.7 542.3,456.7 	"/>
</g>
</svg>
